<svg width="27" height="30" viewBox="0 0 27 30" fill="none" xmlns="http://www.w3.org/2000/svg">
<path d="M13.05 29.49L24.88 22.65L13.05 15.81V29.49Z" fill="#2B87C8"/>
<path d="M26.1 6.84003L14.28 13.68L26.1 20.52V6.84003Z" fill="#2C86C7"/>
<path d="M26.1 6.84L14.28 0V13.68L26.1 6.84Z" fill="#4BB4B6"/>
<path d="M11.82 13.68V0L0 6.84L11.82 13.68Z" fill="#4BB3B5"/>
<path d="M0 6.84003V20.52L11.82 13.68L0 6.84003Z" fill="#71BA68"/>
<path d="M13.05 15.81L1.23 22.65L13.05 29.49V15.81Z" fill="#71BA68"/>
<path d="M20.35 10.17V18.61L13.05 22.83V14.39L20.35 10.17Z" fill="#B7BEC3"/>
<path d="M13.05 14.39L20.35 10.17L13.05 6L5.75 10.22L13.05 14.39Z" fill="#DADDDF"/>
<path d="M13.05 22.83V14.39L5.75 10.17V18.61L13.05 22.83Z" fill="white"/>
</svg>
