<svg width="153" height="40" viewBox="0 0 153 40" fill="none" xmlns="http://www.w3.org/2000/svg">
	<g clip-path="url(#clip0)">
		<path d="M17.737 40L33.8158 30.7223L17.737 21.4446V40Z" fill="#2B87C8"/>
		<path d="M35.4739 9.27771L19.4087 18.5554L35.4739 27.8332V9.27771Z" fill="#2C86C7"/>
		<path d="M35.4739 9.27772L19.4087 0V18.5554L35.4739 9.27772Z" fill="#4BB4B6"/>
		<path d="M16.0652 18.5554V0L0 9.27772L16.0652 18.5554Z" fill="#4BB3B5"/>
		<path d="M0 9.27771V27.8332L16.0652 18.5554L0 9.27771Z" fill="#71BA68"/>
		<path d="M17.737 21.4446L1.67175 30.7223L17.737 40V21.4446Z" fill="#71BA68"/>
		<path d="M27.6588 13.7945V25.2424L17.737 30.9664V19.5185L27.6588 13.7945Z" fill="#E9EEF1"/>
		<path d="M17.737 19.5185L27.6588 13.7945L17.737 8.13837L7.81514 13.8623L17.737 19.5185Z" fill="#F5F8FA"/>
		<path d="M17.737 30.9664V19.5185L7.81514 13.7945V25.2424L17.737 30.9664Z" fill="white"/>
		<path d="M69.181 11.7464H70.744V21.5802C70.6009 23.1416 71.0044 24.7041 71.8857 26.0021C72.3593 26.4881 72.936 26.8621 73.5733 27.0968C74.2106 27.3315 74.8925 27.4209 75.569 27.3585C76.3414 27.3726 77.1101 27.2486 77.8388 26.9922C78.4274 26.781 78.9452 26.4099 79.3338 25.9207C79.7541 25.3929 80.0471 24.7756 80.1901 24.1167C80.367 23.2831 80.4491 22.4322 80.4347 21.5802V11.7464H81.9978V22.0414C82.1222 23.8298 81.5528 25.5975 80.4076 26.9787C79.7713 27.5855 79.0138 28.0513 78.1847 28.3458C77.3556 28.6404 76.4735 28.7569 75.5962 28.6877C74.7154 28.7568 73.8301 28.6364 73 28.3345C72.1699 28.0326 71.4145 27.5564 70.7848 26.938C69.6604 25.562 69.0974 23.8135 69.2081 22.0414L69.181 11.7464Z" fill="#2C86C7"/>
		<path d="M55.9972 28.2537V11.7464H57.5466V20.3459L66.0005 11.8007H67.7674L61.2571 18.3792L68.9227 28.3079H67.0199L60.1426 19.3422L57.5466 21.9329V28.3079L55.9972 28.2537Z" fill="#4BB3B5"/>
		<path d="M43.8871 23.3164C43.9256 23.9663 44.0919 24.6023 44.3764 25.1882C44.6335 25.669 44.9848 26.0934 45.4093 26.4361C45.8445 26.7618 46.3381 27.0013 46.8636 27.1414C47.4411 27.2878 48.0348 27.3607 48.6305 27.3585C49.2765 27.3732 49.9202 27.2769 50.5334 27.0736C51.035 26.9325 51.4991 26.6823 51.8925 26.3412C52.2198 26.0344 52.4751 25.6592 52.64 25.2425C52.8102 24.8108 52.8933 24.3499 52.8847 23.8861C52.9085 23.3333 52.7563 22.7873 52.4498 22.3262C52.1457 21.9209 51.7559 21.5875 51.3081 21.3496C50.7986 21.089 50.2604 20.8887 49.7043 20.7528C49.1062 20.5901 48.481 20.4409 47.8558 20.3052C47.2306 20.1696 46.5918 19.9797 45.9938 19.7898C45.421 19.6012 44.8802 19.3268 44.39 18.976C43.9176 18.641 43.5311 18.1995 43.2619 17.6874C42.9473 17.0663 42.7975 16.3752 42.827 15.6799C42.8223 15.1019 42.9412 14.5296 43.1755 14.001C43.4099 13.4725 43.7544 12.9998 44.1861 12.6145C44.7006 12.1739 45.2961 11.8376 45.9394 11.6243C46.7242 11.3675 47.5465 11.2437 48.3723 11.2581C49.2045 11.2461 50.0324 11.3792 50.8188 11.6514C51.4586 11.8866 52.0454 12.2462 52.5449 12.7094C52.993 13.1582 53.3445 13.6936 53.5779 14.2828C53.8056 14.89 53.9207 15.5335 53.9176 16.1818H52.4226C52.438 15.626 52.3265 15.074 52.0964 14.5677C51.8919 14.1223 51.5788 13.7353 51.1857 13.4419C50.7807 13.1366 50.3186 12.9152 49.8266 12.7908C49.3353 12.6549 48.8277 12.5865 48.3179 12.5873C47.632 12.5727 46.9495 12.6878 46.3064 12.9264C45.7916 13.0993 45.3257 13.3922 44.9472 13.781C44.6409 14.1154 44.4133 14.5139 44.2812 14.9475C44.1863 15.3718 44.1863 15.8117 44.2812 16.236C44.349 16.7221 44.5788 17.1713 44.9336 17.511C45.292 17.8528 45.7116 18.1243 46.1705 18.3113C46.6892 18.5255 47.2259 18.6934 47.7743 18.8132L49.5819 19.2201C50.1936 19.3693 50.778 19.5456 51.3488 19.7355C51.8987 19.9226 52.4166 20.1924 52.8847 20.5358C53.3413 20.8972 53.7048 21.3622 53.9448 21.8922C54.2412 22.5094 54.3857 23.1884 54.3662 23.8725C54.4025 24.547 54.2787 25.2204 54.0047 25.838C53.7307 26.4556 53.3143 26.9998 52.7896 27.4263C51.4958 28.3407 49.9274 28.7858 48.3451 28.6877C47.54 28.6902 46.7388 28.5759 45.9666 28.3486C45.2695 28.1492 44.6215 27.8074 44.0638 27.3449C43.527 26.8893 43.0996 26.3191 42.8134 25.6765C42.5018 24.9293 42.349 24.1256 42.3648 23.3164H43.8871Z" fill="#71BA68"/>
		<path d="M148.882 11.5972V14.5134H143.934V28.0773H140.469V14.5134H135.508V11.5972H148.882Z" fill="#F5F8FA"/>
		<path d="M126.578 11.5972H130.03V25.1611H138.28V28.1316H126.578V11.5972Z" fill="#F5F8FA"/>
		<path d="M111.369 11.5972H114.876V21.2682C114.819 22.1147 114.954 22.963 115.27 23.7504C115.536 24.221 115.937 24.6015 116.421 24.8432C116.906 25.0848 117.451 25.1766 117.988 25.1068C118.525 25.1766 119.071 25.0848 119.555 24.8432C120.039 24.6015 120.44 24.221 120.706 23.7504C121.028 22.9643 121.168 22.1157 121.114 21.2682V11.5972H124.621V21.2682C124.688 22.6709 124.408 24.0685 123.805 25.3374C122.791 27.1459 120.856 28.0502 118.002 28.0502C115.134 28.0502 113.204 27.155 112.185 25.3374C111.582 24.0685 111.302 22.6709 111.369 21.2682V11.5972Z" fill="#F5F8FA"/>
		<path d="M103.459 15.3679L99.2183 28.1045H95.6437L101.542 11.5972H105.443L111.288 28.1045H107.55L103.459 15.3679Z" fill="#F5F8FA"/>
		<path d="M94.8962 11.5972H98.4843L92.8574 28.1045H89.5954L84.0093 11.5972H87.6926L91.2808 24.1302L94.8962 11.5972Z" fill="#F5F8FA"/>
		<path d="M151.287 12.9807H151.451C151.627 12.9807 151.79 12.9807 151.79 12.7637C151.79 12.5467 151.682 12.5467 151.478 12.5467H151.287V12.9807ZM151.287 13.8081H150.961V12.3568C151.146 12.3293 151.334 12.3293 151.519 12.3568C151.692 12.3327 151.869 12.3661 152.021 12.4517C152.069 12.491 152.106 12.5411 152.13 12.5978C152.153 12.6545 152.163 12.7161 152.157 12.7772C152.148 12.8576 152.115 12.9332 152.061 12.9939C152.008 13.0546 151.937 13.0973 151.858 13.1163C151.931 13.1452 151.995 13.1932 152.043 13.2553C152.091 13.3174 152.121 13.3912 152.13 13.469C152.141 13.5956 152.173 13.7194 152.225 13.8352H151.872C151.817 13.723 151.776 13.6046 151.75 13.4826C151.75 13.3198 151.641 13.252 151.451 13.252H151.301V13.8352L151.287 13.8081ZM150.39 13.0485C150.387 13.1964 150.412 13.3435 150.466 13.4815C150.519 13.6194 150.599 13.7456 150.701 13.8526C150.804 13.9597 150.926 14.0456 151.062 14.1055C151.197 14.1653 151.343 14.1979 151.491 14.2015C151.787 14.2015 152.07 14.0843 152.279 13.8757C152.488 13.6671 152.606 13.3842 152.606 13.0892C152.612 12.9414 152.589 12.7937 152.538 12.6548C152.487 12.5158 152.409 12.3882 152.309 12.2792C152.209 12.1703 152.088 12.0821 151.953 12.0198C151.819 11.9575 151.673 11.9222 151.525 11.9159C151.377 11.9097 151.229 11.9326 151.09 11.9835C150.951 12.0343 150.823 12.112 150.714 12.2121C150.605 12.3122 150.516 12.4328 150.454 12.5671C150.391 12.7013 150.356 12.8464 150.35 12.9943V13.0892L150.39 13.0485ZM153.014 13.0485C153.015 13.2403 152.979 13.4304 152.907 13.6081C152.835 13.7857 152.728 13.9473 152.592 14.0836C152.457 14.2198 152.296 14.3279 152.119 14.4017C151.942 14.4754 151.751 14.5134 151.559 14.5134C151.196 14.4784 150.859 14.3097 150.614 14.0401C150.368 13.7705 150.232 13.4194 150.232 13.0553C150.232 12.6912 150.368 12.3401 150.614 12.0705C150.859 11.8009 151.196 11.6322 151.559 11.5972C151.937 11.5824 152.305 11.7162 152.585 11.97C152.865 12.2237 153.033 12.577 153.054 12.9536L153.014 13.0485Z" fill="#F5F8FA"/>
	</g>
	<defs>
		<clipPath id="clip0">
			<rect width="153" height="40" fill="white"/>
		</clipPath>
	</defs>
</svg>
